<svg xmlns="http://www.w3.org/2000/svg" viewBox="0 0 64 64" fill="none">
  <rect width="64" height="64" rx="14" fill="#6940A5"/>
  <!-- Dragon head profile facing right -->
  <g fill="white">
    <!-- Head/skull -->
    <path d="M20 18c-2 4-2 9 1 13l3 4-4 3c-1 1-1 3 0 4l6 5 8 2 7-2c3-2 5-5 5-9v-6c0-4-2-8-5-10-3-3-7-4-11-4-4 0-8 2-10 4z" opacity="0.95"/>
    <!-- Horn back -->
    <path d="M22 18l-4-8c0 0 4 1 6 4" opacity="0.7"/>
    <!-- Horn front -->
    <path d="M28 15l-1-7c0 0 4 2 4 5" opacity="0.7"/>
    <!-- Jaw/snout ridge -->
    <path d="M40 30c2-1 5 0 6 1s1 3-1 3h-5" opacity="0.6"/>
    <!-- Nostril smoke wisp -->
    <path d="M46 32c2-1 4-3 5-2s0 3-2 4" opacity="0.3"/>
  </g>
  <!-- Eye -->
  <circle cx="31" cy="26" r="2.5" fill="#6940A5"/>
  <circle cx="31.8" cy="25.5" r="0.8" fill="white"/>
</svg>
